<?xml version="1.0" encoding="UTF-8"?>
<svg width="100px" height="43px" viewBox="0 0 100 43" version="1.1" xmlns="http://www.w3.org/2000/svg" xmlns:xlink="http://www.w3.org/1999/xlink">
    <!-- Generator: Sketch 54.1 (76490) - https://sketchapp.com -->
    <title>Logo_white_purple</title>
    <desc>Created with Sketch.</desc>
    <g id="Page-1" stroke="none" stroke-width="1" fill="none" fill-rule="evenodd">
        <g id="Artboard" transform="translate(-90.000000, -17.000000)">
            <g id="Logo_white_purple" transform="translate(90.000000, 17.000000)">
                <path d="M0,0 L41,0 L41,42.5 L0,42.5 L0,0 Z M33.75,30.47 L28.16,30.47 L28.16,9.2 L23.75,9.2 L23.75,33.5 L33.75,33.5 L33.75,36 L37.75,31.875 L33.75,28 L33.75,30.47 Z M18.68,38.36 L19.52,35.42 C18.8399966,34.9999979 18.0300047,34.2200057 17.09,33.08 C19.3300112,32.0199947 20.45,29.6200187 20.45,25.88 L20.45,16.76 C20.45,14.1799871 19.9100054,12.2300066 18.83,10.91 C17.7499946,9.5899934 15.9600125,8.93 13.46,8.93 C10.9399874,8.93 9.1400054,9.5899934 8.06,10.91 C6.9799946,12.2300066 6.44,14.1799871 6.44,16.76 L6.44,25.88 C6.44,28.480013 6.9799946,30.4549933 8.06,31.805 C9.1400054,33.1550068 10.9399874,33.83 13.46,33.83 C13.7000012,33.83 13.8699995,33.8200001 13.97,33.8 C14.5900031,34.7400047 15.3499955,35.6499956 16.25,36.53 C17.1500045,37.4100044 17.9599964,38.0199983 18.68,38.36 Z M13.46,30.56 C12.459995,30.56 11.7900017,30.2500031 11.45,29.63 C11.1099983,29.0099969 10.94,28.1100059 10.94,26.93 L10.94,15.74 C10.94,14.5599941 11.1099983,13.670003 11.45,13.07 C11.7900017,12.469997 12.459995,12.17 13.46,12.17 C14.460005,12.17 15.1299983,12.474997 15.47,13.085 C15.8100017,13.6950031 15.98,14.5799942 15.98,15.74 L15.98,26.93 C15.98,28.0900058 15.8100017,28.9849969 15.47,29.615 C15.1299983,30.2450032 14.460005,30.56 13.46,30.56 Z" id="Combined-Shape" fill="#8178D2"></path>
                <path d="M45.39,9.2 L54.78,9.2 L54.78,11.63 L48.78,11.63 L48.78,19.73 L53.43,19.73 L53.43,22.13 L48.78,22.13 L48.78,33.5 L45.39,33.5 L45.39,9.2 Z M56.94,16.16 L60.15,16.16 L60.15,18.62 C60.750003,17.6399951 61.3649969,16.950002 61.995,16.55 C62.6250032,16.149998 63.2899965,15.95 63.99,15.95 C64.1700009,15.95 64.3399992,15.9599999 64.5,15.98 L64.5,19.52 C63.8599968,19.2799988 63.2700027,19.16 62.73,19.16 C62.2099974,19.16 61.7450021,19.2849987 61.335,19.535 C60.924998,19.7850013 60.5300019,20.2199969 60.15,20.84 L60.15,33.5 L56.94,33.5 L56.94,16.16 Z M69.6,33.74 C68.9399967,33.74 68.3450026,33.5500019 67.815,33.17 C67.2849973,32.7899981 66.8700015,32.2900031 66.57,31.67 C66.2699985,31.0499969 66.12,30.4000034 66.12,29.72 C66.12,28.3599932 66.4099971,27.2550042 66.99,26.405 C67.5700029,25.5549957 68.3099955,24.8800025 69.21,24.38 C70.1100045,23.8799975 71.359992,23.3100032 72.96,22.67 L72.96,21.44 C72.96,20.2999943 72.8450012,19.4950024 72.615,19.025 C72.3849988,18.5549977 71.9200035,18.32 71.22,18.32 C69.9999939,18.32 69.39,19.1399918 69.39,20.78 L69.39,21.65 L66.21,21.53 C66.2500002,19.6099904 66.6899958,18.1950046 67.53,17.285 C68.3700042,16.3749955 69.6699912,15.92 71.43,15.92 C73.0900083,15.92 74.2949962,16.3749955 75.045,17.285 C75.7950038,18.1950046 76.17,19.5699908 76.17,21.41 L76.17,29.33 C76.17,30.6300065 76.269999,32.0199926 76.47,33.5 L73.53,33.5 C73.3099989,32.3599943 73.1700003,31.5100028 73.11,30.95 C72.8699988,31.7300039 72.4550029,32.3899973 71.865,32.93 C71.274997,33.4700027 70.5200046,33.74 69.6,33.74 Z M70.86,30.98 C71.2800021,30.98 71.689998,30.8150016 72.09,30.485 C72.490002,30.1549983 72.7799991,29.8400015 72.96,29.54 L72.96,24.62 C72.0999957,25.1000024 71.4350024,25.5149982 70.965,25.865 C70.4949977,26.2150017 70.1050016,26.6199977 69.795,27.08 C69.4849985,27.5400023 69.33,28.0899968 69.33,28.73 C69.33,29.4500036 69.4599987,30.004998 69.72,30.395 C69.9800013,30.7850019 70.3599975,30.98 70.86,30.98 Z M83.76,38.87 C82.0799916,38.87 80.740005,38.6050027 79.74,38.075 C78.739995,37.5449974 78.24,36.7200056 78.24,35.6 C78.24,34.8399962 78.4749977,34.1800028 78.945,33.62 C79.4150024,33.0599972 80.0099964,32.6100017 80.73,32.27 C80.1899973,32.1099992 79.7750015,31.8600017 79.485,31.52 C79.1949986,31.1799983 79.05,30.810002 79.05,30.41 C79.05,29.809997 79.1999985,29.2900022 79.5,28.85 C79.8000015,28.4099978 80.2899966,27.8800031 80.97,27.26 C80.2899966,26.7399974 79.7850016,26.0850039 79.455,25.295 C79.1249983,24.5049961 78.96,23.4400067 78.96,22.1 C78.96,20.0799899 79.3749959,18.5450052 80.205,17.495 C81.0350041,16.4449947 82.249992,15.92 83.85,15.92 C84.7700046,15.92 85.5199971,16.0799984 86.1,16.4 C86.6800029,16.7200016 87.1199985,17.1999968 87.42,17.84 C87.5600007,17.6199989 87.8549977,17.3250018 88.305,16.955 C88.7550023,16.5849982 89.2399974,16.2800012 89.76,16.04 L90.24,15.83 L91.05,17.9 C90.649998,17.9800004 90.0950036,18.1499987 89.385,18.41 C88.6749965,18.6700013 88.2500007,18.8699993 88.11,19.01 C88.2500007,19.3700018 88.3749995,19.8699968 88.485,20.51 C88.5950006,21.1500032 88.65,21.7099976 88.65,22.19 C88.65,24.0900095 88.2800037,25.5649947 87.54,26.615 C86.7999963,27.6650052 85.5700086,28.19 83.85,28.19 C83.3099973,28.19 82.7600028,28.1200007 82.2,27.98 C81.8199981,28.5400028 81.63,28.9799984 81.63,29.3 C81.63,29.5200011 81.7449989,29.6949993 81.975,29.825 C82.2050012,29.9550006 82.5699975,30.0399998 83.07,30.08 L85.77,30.32 C87.1300068,30.4400006 88.1399967,30.8499965 88.8,31.55 C89.4600033,32.2500035 89.79,33.2499935 89.79,34.55 C89.79,37.4300144 87.7800201,38.87 83.76,38.87 Z M83.85,25.94 C84.7100043,25.94 85.2699987,25.640003 85.53,25.04 C85.7900013,24.439997 85.92,23.4600068 85.92,22.1 C85.92,20.7199931 85.7900013,19.7150032 85.53,19.085 C85.2699987,18.4549969 84.7200042,18.14 83.88,18.14 C83.0399958,18.14 82.4750015,18.4549969 82.185,19.085 C81.8949986,19.7150032 81.75,20.7199931 81.75,22.1 C81.75,23.3400062 81.8949986,24.2899967 82.185,24.95 C82.4750015,25.6100033 83.0299959,25.94 83.85,25.94 Z M84,36.35 C85.1400057,36.35 85.9799973,36.2150013 86.52,35.945 C87.0600027,35.6749986 87.33,35.240003 87.33,34.64 C87.33,34.0799972 87.1600017,33.6650013 86.82,33.395 C86.4799983,33.1249986 85.8600045,32.9500004 84.96,32.87 L82.23,32.63 C81.8099979,33.0500021 81.4900011,33.4199984 81.27,33.74 C81.0499989,34.0600016 80.94,34.4099981 80.94,34.79 C80.94,35.3300027 81.1649977,35.7249987 81.615,35.975 C82.0650022,36.2250012 82.8599943,36.35 84,36.35 Z M96.93,33.74 C94.4299875,33.74 93.18,32.3600138 93.18,29.6 L93.18,18.29 L91.35,18.29 L91.35,16.16 L93.18,16.16 L93.18,11.09 L96.39,11.09 L96.39,16.16 L99.18,16.16 L99.18,18.29 L96.39,18.29 L96.39,29.39 C96.39,30.0900035 96.4999989,30.5799986 96.72,30.86 C96.9400011,31.1400014 97.3599969,31.28 97.98,31.28 C98.380002,31.28 98.7699981,31.2500003 99.15,31.19 L99.15,33.56 C98.349996,33.6800006 97.6100034,33.74 96.93,33.74 Z" id="Fragt" fill="#FFFFFF" fill-rule="nonzero"></path>
            </g>
        </g>
    </g>
</svg>