<?xml version="1.0"?>
<svg xmlns="http://www.w3.org/2000/svg" viewBox="0 0 64 64" width="512" height="512"><g id="Protect_package" data-name="Protect package"><rect x="3" y="17" width="50" height="40" style="fill:#ffe2bd"/><path d="M3,57H53V17C53,39.109,30.637,57,3,57Z" style="fill:#ffdaaa"/><polygon points="53 17 46 3 31 3 33 17 53 17" style="fill:#ffc477"/><polygon points="25 3 10 3 3 17 23 17 25 3" style="fill:#ffc477"/><rect x="23" y="17" width="10" height="16" style="fill:#ffa733"/><polygon points="33 17 31 3 25 3 23 17 33 17" style="fill:#ffaf46"/><path d="M49,33,37,37v5.3a20,20,0,0,0,8.906,16.641L49,61l3.094-2.063A20,20,0,0,0,61,42.3V37Z" style="fill:#7ed63e"/><path d="M17,46H9a1,1,0,0,0,0,2h8a1,1,0,0,0,0-2Z" style="fill:#f1f2f2"/><path d="M17,50H9a1,1,0,0,0,0,2h8a1,1,0,0,0,0-2Z" style="fill:#f1f2f2"/><path d="M17,42H9a1,1,0,0,0,0,2h8a1,1,0,0,0,0-2Z" style="fill:#f1f2f2"/><path d="M23,42H21a1,1,0,0,0,0,2h2a1,1,0,0,0,0-2Z" style="fill:#f1f2f2"/><path d="M23,46H21a1,1,0,0,0,0,2h2a1,1,0,0,0,0-2Z" style="fill:#f1f2f2"/><path d="M23,50H21a1,1,0,0,0,0,2h2a1,1,0,0,0,0-2Z" style="fill:#f1f2f2"/><path d="M49.043,56.164a1,1,0,0,0,1.387.277A16.927,16.927,0,0,0,57.546,46.21a1,1,0,0,0-1.947-.459,14.926,14.926,0,0,1-6.279,9.026A1,1,0,0,0,49.043,56.164Z" style="fill:#f1f2f2"/><path d="M57,43.3a1,1,0,0,0,1-1V40.883a1,1,0,0,0-2,0V42.3A1,1,0,0,0,57,43.3Z" style="fill:#f1f2f2"/></g></svg>
