<?xml version="1.0" encoding="UTF-8"?>
<svg width="90px" height="90px" viewBox="0 0 90 90" version="1.1" xmlns="http://www.w3.org/2000/svg" xmlns:xlink="http://www.w3.org/1999/xlink">
    <!-- Generator: Sketch 54.1 (76490) - https://sketchapp.com -->
    <title>Social_Facebook</title>
    <desc>Created with Sketch.</desc>
    <g id="Social_Facebook" stroke="none" stroke-width="1" fill="none" fill-rule="evenodd">
        <g id="facebook-logo" fill="#8178D2" fill-rule="nonzero">
            <path d="M90,15.001 C90,7.119 82.884,0 75,0 L15,0 C7.116,0 0,7.119 0,15.001 L0,74.999 C0,82.881 7.116,90 15.001,90 L45,90 L45,56 L34,56 L34,41 L45,41 L45,35.156 C45,25.077 52.568,16 61.875,16 L74,16 L74,31 L61.875,31 C60.548,31 59,32.611 59,35.024 L59,41 L74,41 L74,56 L59,56 L59,90 L75,90 C82.884,90 90,82.881 90,74.999 L90,15.001 Z" id="Facebook__x28_alt_x29_"></path>
        </g>
    </g>
</svg>